# xmcd
#
# Track frame offsets: 
#        150
#        22327
#        44535
#        64302
#        84085
#        105941
#        124374
#        149705
#        158192
#        167416
#        178932
#        197146
#        226168
#        248331
#        268695
#        288489
#        318428
#
# Disc length: 4486 seconds
#
# Revision: 3
# Processed by: cddbd v1.5.1PL2 Copyright (c) Steve Scherf et al.
# Submitted via: ExactAudioCopy v0.95a5
#
DISCID=f3118411
DTITLE=Patricia Kaas - Toute la Musique...
DYEAR=2004
DGENRE=Blues
TTITLE0=D'Allemagne
TTITLE1=Ceux qui n'ont rien
TTITLE2=Ou sont les Hommes
TTITLE3=La nuit est mauve
TTITLE4=Il me dit que je suis belle
TTITLE5=Je voudrais la connaître
TTITLE6=Des Regrets
TTITLE7=Medley Une fille de l'Est
TTITLE8=Une derniere semaine à New York
TTITLE9=Entrer dans la lumiere
TTITLE10=On pourrait
TTITLE11=Mademoiselle chante le blues
TTITLE12=Toute la Musique que j'aime
TTITLE13=Quand on n'a que l'Amour
TTITLE14=Je le garde pour toi
TTITLE15=L'aigle noir
TTITLE16=Herz eines Kampfers
EXTD=
EXTT0=
EXTT1=
EXTT2=
EXTT3=
EXTT4=
EXTT5=
EXTT6=
EXTT7=
EXTT8=
EXTT9=
EXTT10=
EXTT11=
EXTT12=
EXTT13=
EXTT14=
EXTT15=
EXTT16=
PLAYORDER=
